<?xml version="1.0" encoding="UTF-8"?>
<!DOCTYPE svg PUBLIC "-//W3C//DTD SVG 1.1//EN" "http://www.w3.org/Graphics/SVG/1.1/DTD/svg11.dtd">
<!-- Creator: CorelDRAW 2018 (64-Bit Evaluation Version) -->
<svg xmlns="http://www.w3.org/2000/svg" xml:space="preserve" width="12.7971mm" height="27.4734mm" version="1.1" style="shape-rendering:geometricPrecision; text-rendering:geometricPrecision; image-rendering:optimizeQuality; fill-rule:evenodd; clip-rule:evenodd"
viewBox="0 0 139.84 300.22"
 xmlns:xlink="http://www.w3.org/1999/xlink">
 <defs>
  <style type="text/css">
   <![CDATA[
    .fil0 {fill:#A2D2FF}
   ]]>
  </style>
 </defs>
 <g id="Layer_x0020_1">
  <metadata id="CorelCorpID_0Corel-Layer"/>
  <g id="_1316158592832">
   <path class="fil0" d="M63.05 271.85l-63.05 28.37 0 -177.66 63.05 -33.89 0 183.18zm-7.95 -10.68l4.2 0 0 2.75 -4.2 0 0 -2.75zm0 -5.65l4.2 0 0 2.75 -4.2 0 0 -2.75zm0 -5.65l4.2 0 0 2.75 -4.2 0 0 -2.75zm0 -5.65l4.2 0 0 2.75 -4.2 0 0 -2.75zm0 -5.66l4.2 0 0 2.75 -4.2 0 0 -2.75zm0 -5.65l4.2 0 0 2.75 -4.2 0 0 -2.75zm0 -5.65l4.2 0 0 2.75 -4.2 0 0 -2.75zm0 -5.65l4.2 0 0 2.75 -4.2 0 0 -2.75zm0 -5.66l4.2 0 0 2.75 -4.2 0 0 -2.75zm0 -5.65l4.2 0 0 2.75 -4.2 0 0 -2.75zm0 -5.65l4.2 0 0 2.75 -4.2 0 0 -2.75zm0 -5.66l4.2 0 0 2.75 -4.2 0 0 -2.75zm0 -5.65l4.2 0 0 2.75 -4.2 0 0 -2.75zm0 -5.65l4.2 0 0 2.75 -4.2 0 0 -2.75zm0 -5.65l4.2 0 0 2.75 -4.2 0 0 -2.75zm0 -5.66l4.2 0 0 2.75 -4.2 0 0 -2.75zm0 -5.65l4.2 0 0 2.75 -4.2 0 0 -2.75zm0 -5.65l4.2 0 0 2.75 -4.2 0 0 -2.75zm0 -5.65l4.2 0 0 2.75 -4.2 0 0 -2.75zm0 -5.66l4.2 0 0 2.75 -4.2 0 0 -2.75zm0 -5.65l4.2 0 0 2.75 -4.2 0 0 -2.75zm0 -5.65l4.2 0 0 2.75 -4.2 0 0 -2.75zm0 -5.65l4.2 0 0 2.75 -4.2 0 0 -2.75zm0 -5.66l4.2 0 0 2.75 -4.2 0 0 -2.75zm0 -5.65l4.2 0 0 2.75 -4.2 0 0 -2.75zm0 -5.65l4.2 0 0 2.75 -4.2 0 0 -2.75zm0 -5.66l4.2 0 0 2.75 -4.2 0 0 -2.75zm0 -5.65l4.2 0 0 2.75 -4.2 0 0 -2.75zm0 -5.65l4.2 0 0 2.75 -4.2 0 0 -2.75zm-51.78 182.14l4.2 0 0 2.75 -4.2 0 0 -2.75zm0 -5.65l4.2 0 0 2.75 -4.2 0 0 -2.75zm0 -5.65l4.2 0 0 2.75 -4.2 0 0 -2.75zm0 -5.66l4.2 0 0 2.75 -4.2 0 0 -2.75zm0 -5.65l4.2 0 0 2.75 -4.2 0 0 -2.75zm0 -5.65l4.2 0 0 2.75 -4.2 0 0 -2.75zm0 -5.65l4.2 0 0 2.75 -4.2 0 0 -2.75zm0 -5.66l4.2 0 0 2.75 -4.2 0 0 -2.75zm0 -5.65l4.2 0 0 2.75 -4.2 0 0 -2.75zm0 -5.65l4.2 0 0 2.75 -4.2 0 0 -2.75zm0 -5.66l4.2 0 0 2.75 -4.2 0 0 -2.75zm0 -5.65l4.2 0 0 2.75 -4.2 0 0 -2.75zm0 -5.65l4.2 0 0 2.75 -4.2 0 0 -2.75zm0 -5.65l4.2 0 0 2.75 -4.2 0 0 -2.75zm0 -5.66l4.2 0 0 2.75 -4.2 0 0 -2.75zm0 -5.65l4.2 0 0 2.75 -4.2 0 0 -2.75zm0 -5.65l4.2 0 0 2.75 -4.2 0 0 -2.75zm0 -5.65l4.2 0 0 2.75 -4.2 0 0 -2.75zm0 -5.66l4.2 0 0 2.75 -4.2 0 0 -2.75zm0 -5.65l4.2 0 0 2.75 -4.2 0 0 -2.75zm0 -5.65l4.2 0 0 2.75 -4.2 0 0 -2.75zm0 -5.65l4.2 0 0 2.75 -4.2 0 0 -2.75zm0 -5.66l4.2 0 0 2.75 -4.2 0 0 -2.75zm0 -5.65l4.2 0 0 2.75 -4.2 0 0 -2.75zm0 -5.65l4.2 0 0 2.75 -4.2 0 0 -2.75zm0 -5.65l4.2 0 0 2.75 -4.2 0 0 -2.75zm0 -5.66l4.2 0 0 2.75 -4.2 0 0 -2.75zm0 -5.65l4.2 0 0 2.75 -4.2 0 0 -2.75zm0 -5.65l4.2 0 0 2.75 -4.2 0 0 -2.75z"/>
   <path class="fil0" d="M139.84 125.08l-63.05 28.37 0 -119.57 63.05 -33.89 0 125.08zm-8.32 -8.43l4.2 0 0 2.75 -4.2 0 0 -2.75zm0 -5.65l4.2 0 0 2.75 -4.2 0 0 -2.75zm0 -5.66l4.2 0 0 2.75 -4.2 0 0 -2.75zm0 -5.65l4.2 0 0 2.75 -4.2 0 0 -2.75zm0 -5.65l4.2 0 0 2.75 -4.2 0 0 -2.75zm0 -5.65l4.2 0 0 2.75 -4.2 0 0 -2.75zm0 -5.66l4.2 0 0 2.75 -4.2 0 0 -2.75zm0 -5.65l4.2 0 0 2.75 -4.2 0 0 -2.75zm0 -5.65l4.2 0 0 2.75 -4.2 0 0 -2.75zm0 -5.65l4.2 0 0 2.75 -4.2 0 0 -2.75zm0 -5.66l4.2 0 0 2.75 -4.2 0 0 -2.75zm0 -5.65l4.2 0 0 2.75 -4.2 0 0 -2.75zm0 -5.65l4.2 0 0 2.75 -4.2 0 0 -2.75zm0 -5.66l4.2 0 0 2.75 -4.2 0 0 -2.75zm0 -5.65l4.2 0 0 2.75 -4.2 0 0 -2.75zm0 -5.65l4.2 0 0 2.75 -4.2 0 0 -2.75zm0 -5.65l4.2 0 0 2.75 -4.2 0 0 -2.75zm0 -5.66l4.2 0 0 2.75 -4.2 0 0 -2.75zm0 -5.65l4.2 0 0 2.75 -4.2 0 0 -2.75zm-51.78 125.6l4.2 0 0 2.75 -4.2 0 0 -2.75zm0 -5.66l4.2 0 0 2.75 -4.2 0 0 -2.75zm0 -5.65l4.2 0 0 2.75 -4.2 0 0 -2.75zm0 -5.65l4.2 0 0 2.75 -4.2 0 0 -2.75zm0 -5.65l4.2 0 0 2.75 -4.2 0 0 -2.75zm0 -5.66l4.2 0 0 2.75 -4.2 0 0 -2.75zm0 -5.65l4.2 0 0 2.75 -4.2 0 0 -2.75zm0 -5.65l4.2 0 0 2.75 -4.2 0 0 -2.75zm0 -5.65l4.2 0 0 2.75 -4.2 0 0 -2.75zm0 -5.66l4.2 0 0 2.75 -4.2 0 0 -2.75zm0 -5.65l4.2 0 0 2.75 -4.2 0 0 -2.75zm0 -5.65l4.2 0 0 2.75 -4.2 0 0 -2.75zm0 -5.65l4.2 0 0 2.75 -4.2 0 0 -2.75zm0 -5.66l4.2 0 0 2.75 -4.2 0 0 -2.75zm0 -5.65l4.2 0 0 2.75 -4.2 0 0 -2.75zm0 -5.65l4.2 0 0 2.75 -4.2 0 0 -2.75zm0 -5.66l4.2 0 0 2.75 -4.2 0 0 -2.75zm0 -5.65l4.2 0 0 2.75 -4.2 0 0 -2.75zm0 -5.65l4.2 0 0 2.75 -4.2 0 0 -2.75z"/>
  </g>
 </g>
</svg>
